<?xml version="1.0" encoding="UTF-8"?>
<!DOCTYPE svg PUBLIC "-//W3C//DTD SVG 1.1//EN" "http://www.w3.org/Graphics/SVG/1.1/DTD/svg11.dtd">
<!-- Creator: CorelDRAW X7 -->
<svg xmlns="http://www.w3.org/2000/svg" xml:space="preserve" width="1.4307in" height="2.29999in" version="1.1" style="shape-rendering:geometricPrecision; text-rendering:geometricPrecision; image-rendering:optimizeQuality; fill-rule:evenodd; clip-rule:evenodd"
viewBox="0 0 722 1161"
 xmlns:xlink="http://www.w3.org/1999/xlink">
 <defs>
  <style type="text/css">
   <![CDATA[
    .fil0 {fill:#F4F2F9}
   ]]>
  </style>
 </defs>
 <g id="Layer_x0020_1">
  <metadata id="CorelCorpID_0Corel-Layer"/>
  <path class="fil0" d="M0 10l0 1128c0,7 14,7 26,11 11,2 19,4 31,6 17,4 37,6 58,6l55 0c35,-1 69,-4 97,-8 79,-11 183,-42 252,-72 74,-32 139,-76 179,-144 32,-54 32,-123 5,-181 -11,-24 -23,-35 -40,-52l-25 -20c-9,-7 -18,-13 -27,-19l-54 -38c-19,-15 -60,-44 -76,-61l-24 -23c-30,-35 -66,-72 -86,-120 -2,-6 -5,-10 -7,-16 -22,-44 -38,-125 -52,-177 -15,-54 -41,-110 -75,-154 -4,-5 -7,-7 -11,-12 -5,-6 -7,-7 -12,-12 -20,-16 -28,-24 -57,-36 -25,-10 -49,-15 -73,-16l-30 0c-14,1 -28,2 -43,4 -6,1 -11,0 -11,6z"/>
 </g>
</svg>
