<?xml version="1.0" encoding="UTF-8"?>
<!DOCTYPE svg PUBLIC "-//W3C//DTD SVG 1.1//EN" "http://www.w3.org/Graphics/SVG/1.1/DTD/svg11.dtd">
<!-- Creator: CorelDRAW X7 -->
<svg xmlns="http://www.w3.org/2000/svg" xml:space="preserve" width="0.833264in" height="2.12666in" version="1.1" style="shape-rendering:geometricPrecision; text-rendering:geometricPrecision; image-rendering:optimizeQuality; fill-rule:evenodd; clip-rule:evenodd"
viewBox="0 0 14835 37862"
 xmlns:xlink="http://www.w3.org/1999/xlink">
 <defs>
  <style type="text/css">
   <![CDATA[
    .fil0 {fill:#F4F1F9}
   ]]>
  </style>
 </defs>
 <g id="Layer_x0020_1">
  <metadata id="CorelCorpID_0Corel-Layer"/>
  <path class="fil0" d="M14835 0c-811,0 -2572,537 -3455,759 -555,140 -1038,325 -1566,510 -1044,365 -1994,755 -2971,1243 -1660,830 -3344,1922 -4548,3345 -1133,1340 -2020,2745 -2232,4652 -351,3156 809,6330 2499,8945 148,228 258,431 420,648l3173 3652c99,103 174,160 267,266 112,127 118,169 238,297l1748 1931c732,874 1789,2038 2409,2873 720,971 1060,1391 1764,2450 938,1413 2195,3965 2195,6291l59 -37862z"/>
 </g>
</svg>
