<?xml version="1.0" encoding="UTF-8"?>
<!DOCTYPE svg PUBLIC "-//W3C//DTD SVG 1.1//EN" "http://www.w3.org/Graphics/SVG/1.1/DTD/svg11.dtd">
<!-- Creator: CorelDRAW X7 -->
<svg xmlns="http://www.w3.org/2000/svg" xml:space="preserve" width="1.29503in" height="1.62654in" version="1.1" style="shape-rendering:geometricPrecision; text-rendering:geometricPrecision; image-rendering:optimizeQuality; fill-rule:evenodd; clip-rule:evenodd"
viewBox="0 0 676 849"
 xmlns:xlink="http://www.w3.org/1999/xlink">
 <defs>
  <style type="text/css">
   <![CDATA[
    .fil2 {fill:none}
    .fil21 {fill:#FEFEFE}
    .fil10 {fill:black}
    .fil11 {fill:#15A698}
    .fil1 {fill:#1654B7}
    .fil17 {fill:#171717}
    .fil5 {fill:#290181}
    .fil15 {fill:#295E8F}
    .fil19 {fill:#330284}
    .fil7 {fill:#350284}
    .fil3 {fill:#370385}
    .fil18 {fill:#99550C}
    .fil0 {fill:#9C9C9C}
    .fil8 {fill:#9E13A2}
    .fil20 {fill:#B616A8}
    .fil4 {fill:#B716A9}
    .fil14 {fill:#BA3239}
    .fil6 {fill:#E01DB4}
    .fil12 {fill:#E0363E}
    .fil16 {fill:#E89945}
    .fil13 {fill:#FAA8AC}
    .fil9 {fill:#FFC6CC}
   ]]>
  </style>
   <mask id="id0">
  <radialGradient id="id1" gradientUnits="userSpaceOnUse" cx="356.628" cy="791.757" r="196.65" fx="356.628" fy="791.757">
   <stop offset="0" style="stop-opacity:1; stop-color:white"/>
   <stop offset="0.74902" style="stop-opacity:-127.502; stop-color:white"/>
   <stop offset="1" style="stop-opacity:0; stop-color:white"/>
  </radialGradient>
    <rect style="fill:url(#id1)" x="159" y="733" width="444" height="117"/>
   </mask>
    <mask id="id2">
  <linearGradient id="id3" gradientUnits="userSpaceOnUse" x1="117.432" y1="691.089" x2="171.486" y2="695.381">
   <stop offset="0" style="stop-opacity:0; stop-color:white"/>
   <stop offset="1" style="stop-opacity:1; stop-color:white"/>
  </linearGradient>
     <rect style="fill:url(#id3)" x="100" y="650" width="88.754" height="87.011"/>
    </mask>
    <mask id="id4">
  <linearGradient id="id5" gradientUnits="userSpaceOnUse" x1="98.7373" y1="52.163" x2="239.338" y2="607.519">
   <stop offset="0" style="stop-opacity:0; stop-color:white"/>
   <stop offset="1" style="stop-opacity:1; stop-color:white"/>
  </linearGradient>
     <rect style="fill:url(#id5)" x="-1" y="64" width="340" height="532"/>
    </mask>
    <mask id="id6">
  <linearGradient id="id7" gradientUnits="userSpaceOnUse" x1="127.407" y1="169.525" x2="373.624" y2="485.853">
   <stop offset="0" style="stop-opacity:0; stop-color:white"/>
   <stop offset="0.160784" style="stop-opacity:-127.502; stop-color:white"/>
   <stop offset="1" style="stop-opacity:1; stop-color:white"/>
  </linearGradient>
     <rect style="fill:url(#id7)" x="127" y="59" width="246" height="537"/>
    </mask>
    <mask id="id8">
  <linearGradient id="id9" gradientUnits="userSpaceOnUse" x1="526.495" y1="430.821" x2="377.077" y2="188.303">
   <stop offset="0" style="stop-opacity:0; stop-color:white"/>
   <stop offset="1" style="stop-opacity:1; stop-color:white"/>
  </linearGradient>
     <rect style="fill:url(#id9)" x="369" y="177" width="165" height="265"/>
    </mask>
    <mask id="id10">
  <linearGradient id="id11" gradientUnits="userSpaceOnUse" x1="170.563" y1="692.364" x2="83.5476" y2="692.364">
   <stop offset="0" style="stop-opacity:0; stop-color:white"/>
   <stop offset="1" style="stop-opacity:1; stop-color:white"/>
  </linearGradient>
     <rect style="fill:url(#id11)" x="83" y="649" width="88.754" height="87.011"/>
    </mask>
    <mask id="id12">
  <linearGradient id="id13" gradientUnits="userSpaceOnUse" x1="649.261" y1="45.5486" x2="562.801" y2="48.085">
   <stop offset="0" style="stop-opacity:0; stop-color:white"/>
   <stop offset="1" style="stop-opacity:1; stop-color:white"/>
  </linearGradient>
     <rect style="fill:url(#id13)" x="561" y="-1" width="89.1302" height="95.3725"/>
    </mask>
 </defs>
 <g id="Layer_x0020_1">
  <metadata id="CorelCorpID_0Corel-Layer"/>
  <path class="fil0" style="mask:url(#id0)" d="M381 734c122,0 221,26 221,58 0,31 -99,57 -221,57 -122,0 -221,-26 -221,-57 0,-32 99,-58 221,-58z"/>
  <g id="_723697622176">
   <rect class="fil1" transform="matrix(0.887961 0.459918 -0.459918 0.887961 616.424 262.581)" width="6.96178" height="45.2465"/>
   <ellipse class="fil2" cx="144" cy="693" rx="44" ry="43"/>
   <path class="fil3" d="M144 736c24,0 44,-19 44,-43 0,-23 -20,-42 -44,-42 -24,0 -43,19 -43,42 0,24 19,43 43,43z"/>
   <path class="fil4" style="mask:url(#id2)" d="M144 736c24,0 44,-19 44,-43 0,-23 -20,-42 -44,-42 -24,0 -43,19 -43,42 0,24 19,43 43,43z"/>
   <path class="fil2" d="M484 113c-4,0 -9,0 -13,0 -3,0 -6,0 -7,1 -2,1 -3,2 -4,5 -1,3 -3,7 -5,13 -2,6 -5,13 -6,18 -2,5 -2,9 -1,12 2,2 4,4 6,5 3,0 5,0 8,-2 2,-1 4,-2 7,-3 2,0 6,0 8,-1 2,0 4,0 5,1 0,1 0,3 -1,6 -2,4 -3,9 -5,13 -2,4 -5,6 -7,7 -3,2 -5,2 -10,0 -5,-1 -13,-5 -19,-9 -6,-4 -11,-9 -13,-12 -2,-3 -1,-5 0,-6 1,-1 3,-3 6,-4 2,-2 5,-3 7,-6 2,-3 4,-7 5,-11 1,-4 1,-9 1,-13 -1,-4 -3,-7 -5,-10 -2,-2 -4,-3 -5,-4 -1,0 -1,-1 -2,1 -1,2 -3,6 -5,11 -2,5 -6,10 -9,14 -4,4 -8,7 -10,8 -2,2 -3,2 -3,-4 -1,-5 -1,-17 0,-26 0,-8 2,-13 5,-20 4,-7 9,-17 13,-22 5,-5 8,-6 13,-6 5,0 13,0 21,1 8,1 16,3 23,5 6,2 12,4 16,6 3,3 5,5 6,8 0,3 0,6 -1,9 -1,3 -3,7 -5,10 -3,2 -6,3 -8,4 -2,1 -3,1 -6,1z"/>
   <path class="fil2" d="M499 96c-3,8 -7,17 -9,22 -3,6 -4,9 -4,13 0,4 1,9 2,14 1,5 2,10 3,13 0,3 0,4 -3,5 -2,1 -7,1 -12,1"/>
   <path class="fil2" d="M412 114c-2,21 -5,41 -7,51 -1,9 0,7 0,4"/>
   <path class="fil2" d="M397 168c-1,2 -1,5 -2,7 0,2 -1,2 2,4 3,1 8,5 16,10 8,5 18,13 25,18 6,4 9,6 10,7 2,1 2,0 1,-3 0,-4 -1,-11 -2,-15 -1,-3 -1,-3 -2,-4 -1,0 -3,-1 -9,-5 -7,-4 -19,-11 -26,-14 -6,-4 -8,-5 -9,-5 -2,-1 -3,-1 -4,0z"/>
   <path class="fil2" d="M433 192c4,-8 7,-16 11,-24"/>
   <path class="fil2" d="M73 579c2,3 8,7 15,10 6,3 13,5 21,6 9,0 19,0 31,-2 13,-2 28,-6 36,-9 8,-3 9,-5 10,-8 0,-3 0,-6 3,-16 2,-9 7,-25 12,-41 6,-15 12,-30 19,-44 7,-13 16,-25 27,-40 11,-16 26,-34 38,-52 13,-19 24,-38 33,-65 9,-28 16,-64 19,-87 2,-24 1,-35 -1,-44 -2,-9 -5,-17 -9,-26 -4,-8 -11,-18 -18,-28 -7,-9 -14,-19 -24,-27 -11,-9 -23,-17 -36,-24 -13,-6 -27,-11 -42,-14 -14,-2 -31,-4 -45,-3 -15,1 -27,3 -40,7 -14,4 -27,10 -38,16 -11,5 -20,11 -27,17 -7,6 -12,12 -18,19 -6,8 -13,17 -19,27 -5,10 -10,21 -13,33 -3,12 -4,24 -5,33 -1,9 -3,16 -2,19 1,4 4,4 14,6 9,1 25,3 37,4 12,1 20,-1 28,-2 9,-2 18,-4 23,-6 6,-2 8,-3 9,-5 1,-3 2,-6 4,-12 3,-6 9,-15 14,-22 6,-6 13,-11 21,-14 8,-3 18,-5 28,-5 9,1 19,4 27,9 7,6 13,14 16,22 3,9 4,18 3,26 -1,8 -4,15 -9,28 -6,13 -14,31 -20,43 -7,12 -12,19 -19,27 -7,9 -16,20 -26,34 -10,14 -22,32 -31,46 -9,14 -16,25 -22,36 -6,11 -12,22 -15,33 -4,11 -5,22 -7,35 -1,13 -2,27 -3,36 -1,8 -2,11 -2,14 0,2 0,6 3,10z"/>
   <path class="fil2" d="M69 242c10,1 21,1 32,0 10,-1 20,-5 28,-8 8,-4 13,-8 16,-12 3,-3 3,-6 4,-9 1,-4 3,-7 5,-11 2,-4 5,-9 8,-14 4,-4 9,-8 14,-12"/>
   <path class="fil2" d="M100 589c13,3 27,6 39,6 12,1 24,-1 33,-3 10,-2 17,-4 24,-8 6,-4 12,-9 16,-13 4,-3 6,-5 7,-8 1,-3 1,-7 2,-15 2,-8 5,-19 8,-29 3,-11 6,-20 9,-29 4,-9 8,-19 14,-29 6,-10 13,-20 21,-31 7,-10 15,-20 23,-30 7,-10 15,-19 24,-33 9,-13 20,-31 28,-46 8,-16 13,-29 16,-41 4,-12 6,-22 7,-34 1,-11 2,-23 2,-36 -1,-12 -3,-26 -7,-37 -3,-12 -7,-22 -13,-31 -5,-10 -11,-19 -19,-28 -7,-9 -16,-17 -23,-23 -7,-5 -11,-8 -18,-11 -6,-3 -15,-7 -24,-10 -9,-3 -20,-5 -28,-7 -9,-1 -16,-2 -24,-2 -8,-1 -18,-1 -27,-1 -9,0 -16,0 -25,2 -9,2 -19,5 -29,8"/>
   <ellipse class="fil2" cx="127" cy="692" rx="44" ry="43"/>
   <path class="fil2" d="M427 301c5,-4 14,-12 19,-15 5,-4 5,-4 8,1 3,4 9,13 12,18 3,4 3,5 20,4 17,0 49,-2 66,-2 17,-1 17,-2 19,-3 1,-2 2,-6 4,-8 2,-2 4,-3 10,-4 7,0 18,-1 24,-1 5,-1 5,-1 5,0 0,0 0,1 0,2 0,1 0,2 -1,2 -2,1 -6,1 -8,2 -2,1 -2,2 -2,3 0,1 0,1 1,2 1,0 2,0 3,0 1,1 1,1 1,2 0,1 -1,1 -2,2 0,1 -1,1 -2,3 -1,2 -2,5 -3,8 -1,3 -3,6 -4,8 -2,2 -3,2 -5,3 -3,0 -6,0 -11,1 -5,0 -10,0 -14,0 -4,0 -6,0 -17,2 -10,3 -31,8 -45,11 -15,4 -25,7 -31,9 -7,1 -9,2 -11,1 -2,-1 -4,-4 -8,-9 -4,-5 -10,-14 -15,-20 -4,-6 -7,-10 -10,-12 -2,-3 -4,-4 -5,-5 -1,-1 -2,-1 2,-5z"/>
   <path class="fil2" d="M435 291c-4,2 -12,5 -16,7 -5,2 -5,1 -8,-2 -2,-4 -7,-11 -12,-18 -4,-7 -9,-14 -13,-19 -3,-6 -6,-10 -6,-8 1,1 4,8 9,17 5,9 11,19 15,27 4,7 6,11 8,13 1,2 2,1 5,-1 2,-2 7,-6 11,-9 5,-3 9,-6 11,-7 2,-2 1,-2 -4,0z"/>
   <path class="fil2" d="M443 204c5,5 10,9 18,21 7,11 17,29 25,46 7,16 13,31 20,46"/>
   <path class="fil2" d="M509 332c6,16 12,33 15,46 4,13 6,24 7,31 2,6 3,10 3,11 -1,1 -3,-1 -7,-1 -5,0 -12,2 -25,4 -12,2 -31,6 -44,8 -14,3 -22,5 -30,7 -7,1 -14,3 -17,3 -3,0 -2,0 -1,-4 2,-4 3,-11 4,-21 1,-10 0,-24 -1,-36 -1,-12 -4,-24 -7,-37 -4,-13 -8,-27 -13,-41 -4,-13 -10,-24 -15,-34 -6,-10 -11,-19 -16,-27"/>
   <path class="fil2" d="M370 213c3,-6 7,-11 11,-16 3,-6 7,-11 11,-15 3,-3 5,-5 7,-6"/>
   <path class="fil2" d="M418 432c2,5 4,9 8,13 3,4 7,7 9,10 2,3 2,7 2,16 1,9 2,24 4,44 2,19 4,42 5,54 1,13 0,15 -2,17 -1,3 -4,6 -8,13 -4,7 -10,17 -14,25 -4,8 -7,14 -10,22 -4,8 -9,17 -14,27 -5,9 -10,19 -14,30 -3,10 -6,21 -8,28 -2,7 -4,11 -4,13 0,1 2,1 6,3 4,1 11,3 16,5 5,2 8,3 10,4 2,0 3,1 4,0 0,-1 2,-4 9,-18 6,-13 19,-38 31,-59 12,-22 23,-40 30,-53 8,-12 11,-19 13,-22 2,-4 2,-4 2,0 0,3 1,12 3,26 3,14 8,34 13,53 5,18 11,35 15,48 5,13 9,23 11,27 3,4 5,3 10,1 6,-2 15,-4 20,-5 5,0 6,1 6,-5 -1,-5 -4,-17 -8,-37 -3,-20 -7,-47 -11,-77 -4,-30 -8,-62 -12,-92 -4,-30 -7,-56 -11,-78 -3,-22 -7,-40 -10,-57"/>
   <path class="fil2" d="M399 749c1,10 2,21 3,31"/>
   <path class="fil2" d="M378 740c-4,9 -8,17 -12,25"/>
   <path class="fil2" d="M373 760c-3,0 -6,0 -8,1 -2,1 -4,4 -5,8 -1,3 -3,7 -4,9 0,2 0,2 4,3 3,2 10,4 21,8 10,4 24,9 32,11 8,3 10,3 18,2 8,0 21,-1 28,-3 6,-1 4,-2 -1,-4 -4,-2 -12,-5 -18,-8 -7,-2 -12,-5 -17,-8 -5,-3 -9,-6 -13,-9 -5,-3 -10,-6 -16,-9"/>
   <path class="fil2" d="M408 776c-6,-1 -13,-1 -18,-2 -5,-1 -9,-2 -15,-5 -6,-3 -14,-8 -22,-13"/>
   <path class="fil2" d="M354 756c-1,3 -2,5 -2,7"/>
   <path class="fil2" d="M357 774c-1,5 -3,9 -2,12 0,3 3,4 14,7 10,4 29,10 39,13 10,3 11,3 19,2 8,0 21,-2 28,-3 8,-1 10,-2 8,-3 -2,-2 -7,-4 -12,-7"/>
   <path class="fil2" d="M537 755c0,6 0,13 0,19"/>
   <path class="fil2" d="M567 749c2,9 4,19 5,24 1,4 1,4 1,4"/>
   <path class="fil2" d="M581 752c-4,5 -8,10 -13,13 -5,3 -11,5 -17,6 -5,0 -10,-1 -14,-3 -4,-2 -8,-5 -11,-7"/>
   <path class="fil2" d="M566 754c6,1 12,2 16,4 4,2 7,4 12,7 6,2 14,5 23,7 10,2 21,4 27,6 6,2 8,4 8,6 0,2 -1,3 -3,5 -1,1 -4,3 -8,4 -4,0 -11,0 -25,1 -14,2 -36,4 -50,5 -14,2 -20,2 -25,2 -4,-1 -7,-4 -8,-6 -2,-3 -3,-5 -3,-11 0,-5 0,-14 1,-23"/>
   <path class="fil2" d="M519 797c53,-6 105,-12 157,-18"/>
   <path class="fil5" d="M318 318c9,-28 16,-64 19,-87 2,-24 1,-35 -1,-44 -2,-9 -5,-17 -9,-26 -4,-8 -11,-18 -18,-28 -7,-9 -14,-19 -24,-27 -11,-9 -23,-17 -36,-24 -13,-6 -27,-11 -42,-14 -14,-2 -31,-4 -45,-3 -4,0 -8,0 -12,1 -10,1 -19,3 -28,6 -14,4 -27,10 -38,16 -11,5 -20,11 -27,17 -7,6 -12,12 -18,19 -6,8 -13,17 -19,27 -5,10 -10,21 -13,33 -3,12 -4,24 -5,33 -1,9 -3,16 -2,19 1,4 4,4 14,6 9,1 25,3 37,4 12,1 20,-1 28,-2 2,-1 3,-1 5,-1 7,-2 14,-4 18,-5 6,-2 8,-3 9,-5 1,-3 2,-6 4,-12 3,-6 9,-15 14,-22 6,-6 13,-11 21,-14 6,-3 13,-4 20,-5 2,0 5,0 8,0 9,1 19,4 27,9 7,6 13,14 16,22 3,9 4,18 3,26 -1,8 -4,15 -9,28 -6,13 -14,31 -20,43 -7,12 -12,19 -19,27 -7,9 -16,20 -26,34 -10,14 -22,32 -31,46 -9,14 -16,25 -22,36 -6,11 -12,22 -15,33 -4,11 -5,22 -7,35 -1,13 -2,27 -3,36 -1,8 -2,11 -2,14 0,2 0,6 3,10 2,3 8,7 15,10 6,3 13,5 21,6 6,0 12,0 19,-1 4,0 8,-1 12,-1 13,-2 28,-6 36,-9 8,-3 9,-5 10,-8 0,-3 0,-6 3,-16 2,-9 7,-25 12,-41 6,-15 12,-30 19,-44 7,-13 16,-25 27,-40 11,-16 26,-34 38,-52 13,-19 24,-38 33,-65z"/>
   <path class="fil6" style="mask:url(#id4)" d="M318 318c9,-28 16,-64 19,-87 2,-24 1,-35 -1,-44 -2,-9 -5,-17 -9,-26 -4,-8 -11,-18 -18,-28 -7,-9 -14,-19 -24,-27 -11,-9 -23,-17 -36,-24 -13,-6 -27,-11 -42,-14 -14,-2 -31,-4 -45,-3 -4,0 -8,0 -12,1 -10,1 -19,3 -28,6 -14,4 -27,10 -38,16 -11,5 -20,11 -27,17 -7,6 -12,12 -18,19 -6,8 -13,17 -19,27 -5,10 -10,21 -13,33 -3,12 -4,24 -5,33 -1,9 -3,16 -2,19 1,4 4,4 14,6 9,1 25,3 37,4 12,1 20,-1 28,-2 2,-1 3,-1 5,-1 7,-2 14,-4 18,-5 6,-2 8,-3 9,-5 1,-3 2,-6 4,-12 3,-6 9,-15 14,-22 6,-6 13,-11 21,-14 6,-3 13,-4 20,-5 2,0 5,0 8,0 9,1 19,4 27,9 7,6 13,14 16,22 3,9 4,18 3,26 -1,8 -4,15 -9,28 -6,13 -14,31 -20,43 -7,12 -12,19 -19,27 -7,9 -16,20 -26,34 -10,14 -22,32 -31,46 -9,14 -16,25 -22,36 -6,11 -12,22 -15,33 -4,11 -5,22 -7,35 -1,13 -2,27 -3,36 -1,8 -2,11 -2,14 0,2 0,6 3,10 2,3 8,7 15,10 6,3 13,5 21,6 6,0 12,0 19,-1 4,0 8,-1 12,-1 13,-2 28,-6 36,-9 8,-3 9,-5 10,-8 0,-3 0,-6 3,-16 2,-9 7,-25 12,-41 6,-15 12,-30 19,-44 7,-13 16,-25 27,-40 11,-16 26,-34 38,-52 13,-19 24,-38 33,-65z"/>
   <path class="fil6" d="M327 161c4,9 7,17 9,26 2,9 3,20 1,44 -3,23 -10,59 -19,87 -9,27 -20,46 -33,65 -12,18 -27,36 -38,52 -11,15 -20,27 -27,40 -7,14 -13,29 -19,44 -5,16 -10,32 -12,41 -3,10 -3,13 -3,16 -1,3 -2,5 -10,8 -8,3 -23,7 -36,9 -4,0 -8,1 -12,1 4,1 8,1 11,1 12,1 24,-1 33,-3 10,-2 17,-4 24,-8 6,-4 12,-9 16,-13 4,-3 6,-5 7,-8 1,-3 1,-7 2,-15 2,-8 5,-19 8,-29 3,-11 6,-20 9,-29 4,-9 8,-19 14,-29 6,-10 13,-20 21,-31 7,-10 15,-20 23,-30 7,-10 15,-19 24,-33 9,-13 20,-31 28,-46 8,-16 13,-29 16,-41 3,-9 5,-18 6,-26 0,-3 1,-5 1,-8 1,-11 2,-23 2,-36 0,0 0,-1 -1,-1 0,-12 -3,-25 -6,-36 -3,-12 -7,-22 -13,-31 -5,-10 -11,-19 -19,-28 -7,-9 -16,-17 -23,-23 -7,-5 -11,-8 -18,-11 -6,-3 -15,-7 -24,-10 -9,-3 -20,-5 -28,-7 -9,-1 -16,-2 -24,-2 -8,-1 -18,-1 -27,-1 -9,0 -16,0 -25,2 -5,1 -10,2 -15,4 4,-1 8,-1 12,-1 14,-1 31,1 45,3 15,3 29,8 42,14 13,7 25,15 36,24 10,8 17,18 24,27 7,10 14,20 18,28z"/>
   <path class="fil7" style="mask:url(#id6)" d="M327 161c4,9 7,17 9,26 2,9 3,20 1,44 -3,23 -10,59 -19,87 -9,27 -20,46 -33,65 -12,18 -27,36 -38,52 -11,15 -20,27 -27,40 -7,14 -13,29 -19,44 -5,16 -10,32 -12,41 -3,10 -3,13 -3,16 -1,3 -2,5 -10,8 -8,3 -23,7 -36,9 -4,0 -8,1 -12,1 4,1 8,1 11,1 12,1 24,-1 33,-3 10,-2 17,-4 24,-8 6,-4 12,-9 16,-13 4,-3 6,-5 7,-8 1,-3 1,-7 2,-15 2,-8 5,-19 8,-29 3,-11 6,-20 9,-29 4,-9 8,-19 14,-29 6,-10 13,-20 21,-31 7,-10 15,-20 23,-30 7,-10 15,-19 24,-33 9,-13 20,-31 28,-46 8,-16 13,-29 16,-41 3,-9 5,-18 6,-26 0,-3 1,-5 1,-8 1,-11 2,-23 2,-36 0,0 0,-1 -1,-1 0,-12 -3,-25 -6,-36 -3,-12 -7,-22 -13,-31 -5,-10 -11,-19 -19,-28 -7,-9 -16,-17 -23,-23 -7,-5 -11,-8 -18,-11 -6,-3 -15,-7 -24,-10 -9,-3 -20,-5 -28,-7 -9,-1 -16,-2 -24,-2 -8,-1 -18,-1 -27,-1 -9,0 -16,0 -25,2 -5,1 -10,2 -15,4 4,-1 8,-1 12,-1 14,-1 31,1 45,3 15,3 29,8 42,14 13,7 25,15 36,24 10,8 17,18 24,27 7,10 14,20 18,28z"/>
   <path class="fil8" d="M149 213c1,-4 3,-7 5,-11 2,-4 5,-9 8,-14 2,-3 5,-5 8,-8 -7,1 -14,2 -20,5 -8,3 -15,8 -21,14 -5,7 -11,16 -14,22 -2,6 -3,9 -4,12 -1,2 -3,3 -9,5 -4,1 -11,3 -18,5 6,0 11,0 17,-1 10,-1 20,-5 28,-8 8,-4 13,-8 16,-12 3,-3 3,-6 4,-9z"/>
   <path class="fil2" d="M412 97c-3,7 -5,12 -5,20 -1,9 -1,21 0,26 0,5 0,6 2,5 0,0 1,0 1,-1 2,-1 6,-4 10,-8 3,-4 7,-9 9,-14 2,-5 4,-9 5,-11 1,-2 1,-1 2,-1 1,1 3,2 5,4 2,3 4,6 5,10 0,4 0,9 -1,13 -1,4 -3,8 -5,11 -2,3 -5,4 -7,6 -3,1 -5,3 -6,4 -1,1 -2,3 0,6 2,3 6,7 11,10 1,1 1,1 2,2 6,4 14,8 19,9 5,2 7,2 10,0 2,-1 5,-3 7,-7 2,-4 3,-9 5,-13 1,-3 1,-5 1,-6 0,0 0,0 0,0 -1,0 -2,-1 -3,-1 0,0 -1,0 -2,0 -2,1 -6,1 -8,1 -3,1 -5,2 -7,3 -3,2 -5,2 -8,2 -2,-1 -4,-3 -6,-5 -1,-3 -1,-7 1,-12 1,-5 4,-12 6,-18 2,-6 4,-10 5,-13 1,-3 2,-4 4,-5 1,-1 4,-1 7,-1 4,0 9,0 13,0 3,0 4,0 6,-1 2,-1 5,-2 8,-4 2,-3 4,-7 5,-10 1,-3 1,-6 1,-9 -1,-3 -3,-5 -6,-8 -4,-2 -10,-4 -16,-6 -7,-2 -15,-4 -23,-5 -8,-1 -16,-1 -21,-1 -5,0 -8,1 -13,6 -4,5 -9,15 -13,22z"/>
   <path class="fil9" d="M460 119c-1,3 -3,7 -5,13 -2,6 -5,13 -6,18 -2,5 -2,9 -1,12 2,2 4,4 6,5 3,0 5,0 8,-2 2,-1 4,-2 7,-3 2,0 6,0 8,-1 1,0 2,0 2,0 1,0 2,0 3,1 0,0 0,0 0,0 0,0 0,1 0,2 3,0 5,-1 6,-1 3,-1 3,-2 3,-5 -1,-3 -2,-8 -3,-13 -1,-5 -2,-10 -2,-14 0,-4 1,-7 4,-13 0,-2 2,-4 3,-7 -1,0 -2,1 -3,1 -2,1 -3,1 -6,1 -4,0 -9,0 -13,0 -3,0 -6,0 -7,1 -2,1 -3,2 -4,5z"/>
   <path class="fil9" d="M486 309c-17,1 -17,0 -20,-4 -3,-5 -9,-14 -12,-18 -3,-5 -3,-5 -8,-1 -5,3 -14,11 -19,15 -4,4 -3,4 -2,5 1,1 3,2 5,5 3,2 6,6 10,12 5,6 11,15 15,20 4,5 6,8 8,9 2,1 4,0 11,-1 6,-2 16,-5 31,-9 2,0 4,-1 7,-2 14,-3 29,-7 38,-9 11,-2 13,-2 17,-2 4,0 9,0 14,0 5,-1 8,-1 11,-1 2,-1 3,-1 5,-3 1,-2 3,-5 4,-8 1,-3 2,-6 3,-8 1,-2 2,-2 2,-3 1,-1 2,-1 2,-2 0,-1 0,-1 -1,-2 -1,0 -2,0 -3,0 -1,-1 -1,-1 -1,-2 0,-1 0,-2 2,-3 2,-1 6,-1 8,-2 1,0 1,-1 1,-2l0 -2c0,-1 0,-1 -5,0 -6,0 -17,1 -24,1 -6,1 -8,2 -10,4 -2,2 -3,6 -4,8 -2,1 -2,2 -19,3 -12,0 -33,1 -50,2 -6,0 -12,0 -16,0z"/>
   <path class="fil9" d="M394 752c-5,-2 -12,-4 -16,-5 -1,-1 -2,-1 -3,-1l-6 14 -2 4c3,2 5,4 8,5 6,3 10,4 15,5 4,0 7,1 11,1l-1 -11 -1 -10c-1,-1 -3,-1 -5,-2z"/>
   <path class="fil9" d="M537 760l0 8c4,2 9,3 14,3 6,-1 12,-3 17,-6 1,-1 2,-1 2,-2 0,-2 -1,-5 -1,-8 -1,-1 -2,-1 -3,-1 0,0 -1,0 -1,0 -5,1 -14,3 -20,5 -4,1 -6,2 -8,1z"/>
   <path class="fil9" d="M410 173c7,3 19,10 25,14l4 -9c-5,-4 -10,-8 -12,-11 -2,-3 -1,-5 0,-6 1,-1 3,-3 6,-4 2,-2 5,-3 7,-6 2,-3 4,-7 5,-11 1,-4 1,-9 1,-13 -1,-4 -3,-7 -5,-10 -2,-2 -4,-3 -5,-4 -1,0 -1,-1 -2,1 -1,2 -3,6 -5,11 -2,5 -6,10 -9,14 -4,4 -8,7 -10,8 -1,1 -2,1 -2,1 -1,7 -2,13 -3,17 0,2 0,4 0,5 0,0 0,0 0,0 2,1 3,1 5,3z"/>
   <path class="fil10" d="M446 127c0,4 0,9 -1,13 -1,4 -3,8 -5,11 -2,3 -5,4 -7,6 -3,1 -5,3 -6,4 -1,1 -2,3 0,6 2,3 7,7 12,11l1 1c6,4 14,8 19,9 5,2 7,2 10,0 2,-1 5,-3 7,-7 2,-4 3,-9 5,-13 0,-2 1,-3 1,-4 0,-1 0,-2 0,-2 0,0 0,0 0,0l-3 -1 -2 0c-2,1 -6,1 -8,1 -3,1 -5,2 -7,3 -3,2 -5,2 -8,2 -2,-1 -4,-3 -6,-5 -1,-3 -1,-7 1,-12 1,-5 4,-12 6,-18 2,-6 4,-10 5,-13 1,-3 2,-4 4,-5 1,-1 4,-1 7,-1 4,0 9,0 13,0 3,0 4,0 6,-1l3 -1c1,-1 3,-2 5,-3 2,-3 4,-7 5,-10 1,-3 1,-6 1,-9 -1,-3 -3,-5 -6,-8 -4,-2 -10,-4 -16,-6 -7,-2 -15,-4 -23,-5 -8,-1 -16,-1 -21,-1 -5,0 -8,1 -13,6 -4,5 -9,15 -13,22 -3,7 -5,12 -5,20 -1,9 -1,21 0,26 0,4 0,5 1,5 0,0 1,0 2,-1 2,-1 6,-4 10,-8 3,-4 7,-9 9,-14 2,-5 4,-9 5,-11 1,-2 1,-1 2,-1 1,1 3,2 5,4 2,3 4,6 5,10z"/>
   <path class="fil11" d="M435 187c-6,-4 -18,-11 -25,-14l-5 -3c0,0 0,0 0,0 0,1 0,3 0,0 -2,-2 -4,-2 -4,-2 -2,-1 -3,-1 -4,0 -1,2 -1,5 -2,7 0,2 0,2 1,3 0,0 1,1 1,1 3,1 8,5 16,10 8,5 18,13 25,18 6,4 9,6 10,7 2,1 2,0 1,-3l0 -1 -2 -14c-1,-3 -1,-3 -2,-4 -1,0 -3,-1 -9,-5 -1,0 -1,0 -1,0z"/>
   <path class="fil12" d="M438 207l-41 -28c0,0 -1,-1 -1,-1 -1,1 -3,3 -4,4 -4,4 -8,9 -11,15 -3,4 -6,8 -9,12 1,0 1,1 1,1 0,13 -1,25 -2,36 0,3 -1,5 -1,8 3,4 5,9 8,14 5,10 11,21 15,34 5,14 9,28 13,41 3,13 6,25 7,37 1,12 2,26 1,36 -1,10 -2,17 -4,21 -1,4 -2,4 1,4 2,0 6,-1 10,-2 2,0 5,-1 7,-1 8,-2 16,-4 30,-7 13,-2 32,-6 44,-8 9,-2 15,-3 19,-3 2,0 4,-1 6,-1 4,0 6,2 7,1 0,-1 -1,-5 -3,-11 -1,-7 -3,-18 -7,-31 -3,-11 -7,-24 -12,-38 -3,1 -5,2 -7,2 -15,4 -25,7 -31,9 -7,1 -9,2 -11,1 -2,-1 -4,-4 -8,-9 -4,-5 -10,-14 -15,-20 -4,-6 -7,-10 -10,-12 -2,-3 -4,-4 -5,-5 -1,-1 -2,-1 2,-5 5,-4 14,-12 19,-15 5,-4 5,-4 8,1 3,4 9,13 12,18 3,4 3,5 20,4l16 0c0,0 0,0 0,0 -5,-12 -10,-25 -16,-38 -8,-17 -18,-35 -25,-46 -5,-7 -8,-11 -12,-15 0,0 0,0 0,1 1,1 1,3 1,3 -1,1 -1,1 -1,0 0,0 0,0 -1,0 -1,0 -4,-3 -10,-7zm-27 89c3,3 3,4 8,2 4,-2 12,-5 16,-7 5,-2 6,-2 4,0 -2,1 -6,4 -11,7 -4,3 -9,7 -11,9 -3,2 -4,3 -5,1 -2,-2 -4,-6 -8,-13l-15 -27c-5,-9 -8,-16 -9,-17 0,-2 3,2 6,8 4,5 9,12 13,19 5,7 10,14 12,18z"/>
   <path class="fil13" style="mask:url(#id8)" d="M438 207l-41 -28c0,0 -1,-1 -1,-1 -1,1 -3,3 -4,4 -4,4 -8,9 -11,15 -3,4 -6,8 -9,12 1,0 1,1 1,1 0,13 -1,25 -2,36 0,3 -1,5 -1,8 3,4 5,9 8,14 5,10 11,21 15,34 5,14 9,28 13,41 3,13 6,25 7,37 1,12 2,26 1,36 -1,10 -2,17 -4,21 -1,4 -2,4 1,4 2,0 6,-1 10,-2 2,0 5,-1 7,-1 8,-2 16,-4 30,-7 13,-2 32,-6 44,-8 9,-2 15,-3 19,-3 2,0 4,-1 6,-1 4,0 6,2 7,1 0,-1 -1,-5 -3,-11 -1,-7 -3,-18 -7,-31 -3,-11 -7,-24 -12,-38 -3,1 -5,2 -7,2 -15,4 -25,7 -31,9 -7,1 -9,2 -11,1 -2,-1 -4,-4 -8,-9 -4,-5 -10,-14 -15,-20 -4,-6 -7,-10 -10,-12 -2,-3 -4,-4 -5,-5 -1,-1 -2,-1 2,-5 5,-4 14,-12 19,-15 5,-4 5,-4 8,1 3,4 9,13 12,18 3,4 3,5 20,4l16 0c0,0 0,0 0,0 -5,-12 -10,-25 -16,-38 -8,-17 -18,-35 -25,-46 -5,-7 -8,-11 -12,-15 0,0 0,0 0,1 1,1 1,3 1,3 -1,1 -1,1 -1,0 0,0 0,0 -1,0 -1,0 -4,-3 -10,-7zm-27 89c3,3 3,4 8,2 4,-2 12,-5 16,-7 5,-2 6,-2 4,0 -2,1 -6,4 -11,7 -4,3 -9,7 -11,9 -3,2 -4,3 -5,1 -2,-2 -4,-6 -8,-13l-15 -27c-5,-9 -8,-16 -9,-17 0,-2 3,2 6,8 4,5 9,12 13,19 5,7 10,14 12,18z"/>
   <path class="fil14" d="M419 298c-5,2 -5,1 -8,-2 -2,-4 -7,-11 -12,-18 -4,-7 -9,-14 -13,-19 -3,-6 -6,-10 -6,-8 1,1 4,8 9,17l15 27c4,7 6,11 8,13 1,2 2,1 5,-1 2,-2 7,-6 11,-9 5,-3 9,-6 11,-7 2,-2 1,-2 -4,0 -4,2 -12,5 -16,7z"/>
   <path class="fil15" d="M502 423c-12,2 -31,6 -44,8 -14,3 -22,5 -30,7 -2,0 -5,1 -7,1 2,2 3,4 5,6 3,4 7,7 9,10 2,3 2,7 2,16 1,9 2,24 4,44 2,19 4,42 5,54 1,13 0,15 -2,17 -1,3 -4,6 -8,13 -4,7 -10,17 -14,25 -4,8 -7,14 -10,22 -4,8 -9,17 -14,27 -5,9 -10,19 -14,30 -3,10 -6,21 -8,28 -2,7 -4,11 -4,13 0,1 1,1 3,2l3 1c4,1 11,3 16,5 2,1 4,1 5,2 2,0 4,1 5,2 2,0 3,1 4,0 0,-1 2,-4 9,-18 6,-13 19,-38 31,-59 12,-22 23,-40 30,-53 8,-12 11,-19 13,-22 2,-4 2,-4 2,0 0,3 1,12 3,26 3,14 8,34 13,53 5,18 11,35 15,48 5,13 9,23 11,27 1,1 1,1 2,2 2,1 4,0 8,-1 6,-2 15,-4 20,-5 0,0 1,0 1,0 1,0 2,0 2,0 3,0 3,-1 3,-5 -1,-5 -4,-17 -8,-37 -3,-20 -7,-47 -11,-77 -4,-30 -8,-62 -12,-92 -4,-30 -7,-56 -11,-78 -3,-17 -5,-32 -8,-45 -4,0 -10,1 -19,3z"/>
   <path class="fil2" d="M568 765c-5,3 -11,5 -17,6 -5,0 -10,-1 -14,-3 0,0 0,0 0,0 -2,-1 -4,-2 -6,-4 -1,8 -1,15 -1,20 0,6 1,8 3,11 0,0 0,0 0,0l118 -13c-1,-1 -3,-3 -7,-4 -6,-2 -17,-4 -27,-6 -9,-2 -17,-5 -23,-7 -5,-3 -8,-5 -12,-7 -1,0 -3,-1 -4,-1 -3,2 -5,4 -8,6 0,1 -1,1 -2,2z"/>
   <path class="fil16" d="M568 765c-5,3 -11,5 -17,6 -5,0 -10,-1 -14,-3 0,0 0,0 0,0 -2,-1 -4,-2 -6,-4 -1,8 -1,15 -1,20 0,6 1,8 3,11 0,0 0,0 0,0l118 -13c-1,-1 -3,-3 -7,-4 -6,-2 -17,-4 -27,-6 -9,-2 -17,-5 -23,-7 -5,-3 -8,-5 -12,-7 -1,0 -3,-1 -4,-1 -3,2 -5,4 -8,6 0,1 -1,1 -2,2z"/>
   <path class="fil16" d="M440 787c-7,-2 -12,-5 -17,-8 -5,-3 -9,-6 -13,-9 -3,-2 -6,-4 -10,-6l1 11c-4,0 -7,-1 -11,-1 -5,-1 -9,-2 -15,-5 -3,-1 -5,-3 -8,-5 -1,0 -2,-1 -4,-2 -1,2 -2,4 -3,7 0,0 0,0 0,0l0 0 -3 5c0,2 -1,3 -1,4 0,2 1,2 4,3 3,2 10,4 21,8 10,4 24,9 32,11 8,3 10,3 18,2 8,0 21,-1 28,-3 0,0 0,0 0,0 6,-1 4,-2 -1,-4 -4,-2 -12,-5 -18,-8z"/>
   <path class="fil17" d="M651 782l-118 13c2,3 4,5 8,6 5,0 11,0 25,-2 14,-1 36,-3 50,-5 14,-1 21,-1 25,-1 4,-1 7,-3 8,-4 2,-2 3,-3 3,-5 0,0 0,-1 -1,-2z"/>
   <path class="fil17" d="M431 802c-8,1 -10,1 -18,-2 -8,-2 -22,-7 -32,-11 -11,-4 -18,-6 -21,-8 -3,-1 -4,-1 -4,-3 -1,3 -2,6 -1,8 0,3 3,4 14,7 10,4 29,10 39,13 10,3 11,3 19,2 8,0 21,-2 28,-3 8,-1 10,-2 8,-3 -1,-1 -2,-2 -4,-3l0 0c-7,2 -20,3 -28,3z"/>
   <path class="fil18" d="M569 755c0,3 1,6 1,8 3,-2 5,-4 8,-6 -3,-1 -6,-2 -9,-2z"/>
   <path class="fil3" d="M127 735c24,0 44,-19 44,-43 0,-23 -20,-42 -44,-42 -24,0 -43,19 -43,42 0,24 19,43 43,43z"/>
   <path class="fil4" style="mask:url(#id10)" d="M127 735c24,0 44,-19 44,-43 0,-23 -20,-42 -44,-42 -24,0 -43,19 -43,42 0,24 19,43 43,43z"/>
   <g>
    <path class="fil19" d="M588 73l-1 3 -22 18 27 0 20 -13 4 -8 -28 0zm-10 -73l56 0c9,0 16,7 16,16l0 42c0,8 -7,15 -16,15l-18 0 -28 0 -10 0c-9,0 -16,-7 -16,-15l0 -42c0,-9 7,-16 16,-16z"/>
   </g>
   <path class="fil20" style="mask:url(#id12)" d="M588 73l-1 3 -22 18 27 0 20 -13 4 -8m-38 -73l56 0c9,0 16,7 16,16l0 42c0,8 -7,15 -16,15l-18 0 -28 0 -10 0c-9,0 -16,-7 -16,-15l0 -42c0,-9 7,-16 16,-16z"/>
   <circle class="fil21" cx="581" cy="36" r="8"/>
   <circle class="fil21" cx="607" cy="36" r="8"/>
   <circle class="fil21" cx="631" cy="36" r="8"/>
  </g>
 </g>
</svg>
